<?xml version="1.0" encoding="utf-8"?>
<!-- Generator: Adobe Illustrator 19.0.0, SVG Export Plug-In . SVG Version: 6.00 Build 0)  -->
<svg version="1.1" xmlns="http://www.w3.org/2000/svg" xmlns:xlink="http://www.w3.org/1999/xlink" x="0px" y="0px"
	 viewBox="0 0 594.9 167.2" style="enable-background:new 0 0 594.9 167.2;" xml:space="preserve">
<style type="text/css">
	.st0{fill:#BE1824;}
	.st1{fill:#2126C2;}
	.st2{fill:#E13408;}
	.st3{fill:#2F8E22;}
	.st4{fill:none;}
	.st5{font-family:'CenturyGothic-Bold';}
	.st6{font-size:100px;}
</style>
<g id="Layer_1">
	<path id="XMLID_9_" class="st0" d="M464.5,71.9c3.3-3.3,17.1-16,38.3-16.3c22.6-0.4,37.4,13.6,40.5,16.7l12.8-14
		c-4.6-4.3-24-21.4-53.2-21c-28.1,0.4-46.6,16.6-51.4,21L464.5,71.9z"/>
	<path id="XMLID_8_" class="st1" d="M564.1,49.6c-4.8-4.6-28.6-26.4-64.1-24.7c-30.4,1.5-50.4,19.3-56,24.7l-13.4-14
		c6.6-6.3,31.8-29,70.3-30c42.6-1.1,70.7,25,76.6,30.7L564.1,49.6z"/>
	<path id="XMLID_7_" class="st2" d="M484.4,93.9c2.2-1.8,8.9-6.8,18.7-7c10.3-0.2,17.4,5,19.6,6.7l12.8-12.3
		c-3.3-2.8-15.6-12.8-33.6-12.3c-15.6,0.4-26.3,8.4-29.9,11.3L484.4,93.9z"/>
	<path id="XMLID_6_" class="st3" d="M502.4,101.6c8.5-0.8,16.4,6,17.7,14.7c1.7,10.7-6.8,21.3-16.8,21
		c-10.3-0.3-17.8-12.1-15.6-22.3C489.3,108,495.3,102.2,502.4,101.6z"/>
</g>
<g id="Layer_2">
	<rect id="XMLID_1_" y="64.7" class="st4" width="468.9" height="189.1"/>
	<text id="XMLID_2_" transform="matrix(1 0 0 1 9.895373e-05 138.271)" class="st1 st5 st6">Loading</text>
</g>
<g id="Layer_3">
	<path id="XMLID_4_" class="st3" d="M461.1,101.6c8.5-0.8,16.4,6,17.7,14.7c1.7,10.7-6.8,21.3-16.8,21
		c-10.3-0.3-17.8-12.1-15.6-22.3C448,108,454,102.2,461.1,101.6z"/>
	<path id="XMLID_3_" class="st3" d="M419.4,101.6c8.5-0.8,16.4,6,17.7,14.7c1.7,10.7-6.8,21.3-16.8,21
		c-10.3-0.3-17.8-12.1-15.6-22.3C406.3,108,412.2,102.2,419.4,101.6z"/>
</g>
</svg>
