<?xml version="1.0" encoding="utf-8"?>
<!-- Generator: Adobe Illustrator 19.0.0, SVG Export Plug-In . SVG Version: 6.00 Build 0)  -->
<svg version="1.1" xmlns="http://www.w3.org/2000/svg" xmlns:xlink="http://www.w3.org/1999/xlink" x="0px" y="0px"
	 viewBox="528 -187.5 1074.2 392.5" style="enable-background:new 528 -187.5 1074.2 392.5;" xml:space="preserve">
<style type="text/css">
	.st0{fill:#C7E9F1;stroke:#F5F7F7;stroke-miterlimit:10;}
	.st1{fill:#35F706;stroke:#FFFFFF;stroke-miterlimit:10;}
	.st2{fill:#42F906;}
	.st3{fill:none;}
	.st4{fill:#747A7A;stroke:#FFFFFF;stroke-miterlimit:10;}
	.st5{fill:#756041;stroke:#FFFFFF;stroke-miterlimit:10;}
	.st6{fill:#395638;stroke:#FFFFFF;stroke-miterlimit:10;}
	.st7{fill:#58DB52;stroke:#FFFFFF;stroke-miterlimit:10;}
	.st8{fill:#55F20C;stroke:#FFFFFF;stroke-miterlimit:10;}
	.st9{fill:#06F733;stroke:#FFFFFF;stroke-miterlimit:10;}
	.st10{fill:#06F733;}
	.st11{fill:#5ECCC9;stroke:#FFFFFF;stroke-miterlimit:10;}
	.st12{fill:none;stroke:#FFFFFF;stroke-miterlimit:10;}
	.st13{fill:#0C0C0C;stroke:#FFFFFF;stroke-miterlimit:10;}
	.st14{fill:none;stroke:#1C1C1C;stroke-miterlimit:10;}
	.st15{fill:#24B3C6;stroke:#FFFFFF;stroke-miterlimit:10;}
	.st16{fill:#D2D8D8;stroke:#FFFFFF;stroke-miterlimit:10;}
	.st17{fill:#D2D8D8;stroke:#717171;stroke-width:5;stroke-miterlimit:10;}
	.st18{fill:#513E5E;stroke:#717171;stroke-width:5;stroke-miterlimit:10;}
	.st19{fill:#333333;stroke:#717171;stroke-width:5;stroke-miterlimit:10;}
	.st20{fill:#41086B;stroke:#717171;stroke-width:5;stroke-miterlimit:10;}
	.st21{fill:#690AA0;stroke:#717171;stroke-width:5;stroke-miterlimit:10;}
	.st22{fill:#AB08F7;stroke:#717171;stroke-width:5;stroke-miterlimit:10;}
	.st23{fill:#D2D8D8;stroke:#717171;stroke-width:6;stroke-miterlimit:10;}
	.st24{fill:#F7F3F2;}
	.st25{fill:#345AF7;stroke:#F5F5F5;stroke-miterlimit:10;}
	.st26{fill:#548EED;stroke:#F5F5F5;stroke-miterlimit:10;}
	.st27{fill:#9FA6BC;stroke:#F5F5F5;stroke-miterlimit:10;}
	.st28{fill:#797C82;stroke:#F5F5F5;stroke-width:5;stroke-miterlimit:10;}
	.st29{fill:#070707;stroke:#0B0B0B;stroke-width:5;stroke-miterlimit:10;}
	.st30{fill:#EAEDF4;stroke:#050505;stroke-miterlimit:10;}
	.st31{fill:#2F70F2;stroke:#F5F5F5;stroke-miterlimit:10;}
	.st32{fill:#F25803;stroke:#F4F6F9;stroke-miterlimit:10;}
	.st33{fill:#EF7216;}
	.st34{fill:#E55028;stroke:#F0F0F7;stroke-miterlimit:10;}
	.st35{fill:#EFD6CA;stroke:#F4F6F9;stroke-width:5;stroke-miterlimit:10;}
	.st36{fill:#EFD6CA;stroke:#1B1B1C;stroke-width:5;stroke-miterlimit:10;}
	.st37{fill:#7C7574;}
	.st38{fill:#F7F5F5;}
	.st39{fill:#873215;stroke:#F0F0F7;stroke-miterlimit:10;}
	.st40{fill:none;stroke:#F4F6F9;stroke-miterlimit:10;}
	.st41{fill:#A39F9F;}
	.st42{fill:#8E8B8B;}
	.st43{fill:none;stroke:#C8C8C8;stroke-width:3;stroke-miterlimit:10;}
	.st44{fill:none;stroke:#C8C8C8;stroke-width:5;stroke-miterlimit:10;}
	.st45{fill:none;stroke:#C8C8C8;stroke-width:2;stroke-miterlimit:10;}
	.st46{fill:#56E247;stroke:#939390;stroke-miterlimit:10;}
	.st47{fill:#47F928;stroke:#939390;stroke-miterlimit:10;}
	.st48{fill:#5EE542;stroke:#939390;stroke-miterlimit:10;}
	.st49{fill:#6AC654;stroke:#939390;stroke-miterlimit:10;}
	.st50{fill:#859E99;stroke:#939390;stroke-miterlimit:10;}
	.st51{fill:none;stroke:#939390;stroke-miterlimit:10;}
	.st52{fill:none;stroke:#141411;stroke-width:4;stroke-miterlimit:10;}
	.st53{fill:#111111;stroke:#F4F4F2;stroke-miterlimit:10;}
	.st54{fill:#EFE630;stroke:#727265;stroke-miterlimit:10;}
	.st55{fill:#0A0A09;stroke:#D1D1C7;stroke-miterlimit:10;}
	.st56{fill:#3F3F3D;stroke:#777769;stroke-miterlimit:10;}
	.st57{fill:#0A0A09;stroke:#F4F4F2;stroke-miterlimit:10;}
	.st58{fill:#262624;stroke:#636359;stroke-miterlimit:10;}
	.st59{fill:#EAE424;stroke:#F4F4F2;stroke-miterlimit:10;}
	.st60{fill:#474640;stroke:#474743;stroke-miterlimit:10;}
	.st61{fill:#BAB9AE;stroke:#A09F8D;stroke-miterlimit:10;}
	.st62{fill:#BAB9AE;stroke:#A09F8D;stroke-width:4;stroke-miterlimit:10;}
	.st63{fill:#E0D438;stroke:#F4F4F2;stroke-miterlimit:10;}
	.st64{fill:none;stroke:#D1D1C7;stroke-miterlimit:10;}
	.st65{fill:none;stroke:#F9F9F7;stroke-width:2;stroke-miterlimit:10;}
	.st66{fill:#B5813C;stroke:#777771;stroke-width:2;stroke-miterlimit:10;}
	.st67{fill:#BC8B51;stroke:#777771;stroke-width:2;stroke-miterlimit:10;}
	.st68{fill:#A06B32;stroke:#777771;stroke-width:2;stroke-miterlimit:10;}
	.st69{fill:#776350;stroke:#777771;stroke-width:2;stroke-miterlimit:10;}
	.st70{fill:#776350;stroke:#777771;stroke-width:4;stroke-miterlimit:10;}
	.st71{fill:#BB8B50;stroke:#FFFFFF;stroke-miterlimit:10;}
	.st72{fill:#B4813B;}
	.st73{fill:#997A44;}
	.st74{fill:#3F3731;}
	.st75{fill:#BFA690;stroke:#AFABA7;stroke-width:2;stroke-miterlimit:10;}
	.st76{fill:none;stroke:#3D3935;stroke-width:5;stroke-miterlimit:10;}
	.st77{fill:none;stroke:#CCC9C6;stroke-miterlimit:10;}
	.st78{fill:#BFA690;stroke:#CCC9C6;stroke-miterlimit:10;}
	.st79{fill:#070808;}
	.st80{fill:#070707;stroke:#474743;stroke-miterlimit:10;}
	.st81{fill:#C4F0F7;stroke:#F5F7F7;stroke-miterlimit:10;}
	.st82{fill:none;stroke:#F5F7F7;stroke-miterlimit:10;}
	.st83{fill:#BABCBF;}
	.st84{fill:#F7F8F9;}
	.st85{fill:#EDEEEF;}
	.st86{fill:#F5F6F7;}
	.st87{fill:#ADAFB2;}
	.st88{enable-background:new    ;}
	.st89{clip-path:url(#SVGID_2_);}
	.st90{fill:#474640;}
	.st91{fill:#474743;}
	.st92{fill:#BAB9AE;}
	.st93{fill:#A09F8D;}
	.st94{fill:#E0D438;}
	.st95{fill:#F4F4F2;}
	.st96{fill:#070707;stroke:#FFFFFF;stroke-miterlimit:10;}
	.st97{fill:#9E9E9E;}
	.st98{clip-path:url(#SVGID_4_);}
	.st99{clip-path:url(#SVGID_6_);fill:#5ECCC9;}
	.st100{clip-path:url(#SVGID_6_);fill:#FFFFFF;}
	.st101{clip-path:url(#SVGID_6_);fill:#D2D8D8;}
	.st102{clip-path:url(#SVGID_6_);fill:#717171;}
	.st103{clip-path:url(#SVGID_6_);fill:#C8C8C8;}
	.st104{fill:#F0F1F2;}
	.st105{fill:#BFC1C4;}
	.st106{clip-path:url(#SVGID_8_);}
	.st107{fill:#548EED;}
	.st108{fill:#F5F5F5;}
	.st109{fill:#9FA6BC;}
	.st110{fill:#0B0B0B;}
</style>
<g id="Layer_1">
	<g id="Layer_1_1_">
		<g id="Layer_9">
			<rect x="506.7" y="-187.9" class="st0" width="1094.7" height="358.2"/>
		</g>
		<g id="Layer_3_1_">
			<polygon class="st1" points="1369.8,-139 1374.3,-143.8 1378.8,-139.7 1378.6,-144.2 1379.2,-152.5 1382.1,-152.2 1381.8,-154.7 
				1385.6,-153.2 1391.1,-157.3 1397.2,-159 1397.5,-155.7 1402.3,-156.8 1404.8,-152.4 1407.7,-151.7 1409.1,-156.2 1413.6,-154.6 
				1421.2,-157.3 1423.8,-156.3 1423.7,-158.8 1425.8,-161.2 1429.6,-161.5 1432.1,-162.8 1436.8,-164.2 1439.8,-164.3 1440,-161.2 
				1444.2,-161.5 1446.8,-159.2 1448.8,-155 1457.2,-159.2 1453.5,-163 1450.7,-165.2 1450,-166.9 1456.8,-166 1451.5,-169.8 
				1449.8,-172.2 1445.2,-173.4 1447.1,-174.5 1445,-175.9 1449,-176.2 1453.2,-174.2 1456.2,-172.6 1459.1,-171.7 1462.5,-170.8 
				1466.3,-172.2 1468.8,-173.4 1472.6,-171.4 1475.2,-174.2 1480.5,-173.7 1485.1,-173.7 1485.2,-172.8 1488.8,-173.2 
				1490.5,-175.2 1498.6,-175.8 1501.8,-175.3 1504.6,-176.5 1507.7,-178.2 1497.8,-181.8 1499.8,-183.2 1499,-186 1490.8,-186.3 
				1488.7,-187.4 1484.7,-187.2 1481.3,-189.2 1445,-186.4 1443.8,-183.6 1440.2,-181.2 1437,-182.3 1434.7,-185.6 1364.1,-180.2 
							"/>
			<polygon class="st1" points="1365.1,-168.2 1363,-169.6 1366.5,-148.8 1366.6,-135.5 1362.8,-135.3 1360.2,-133.3 1355.3,-135.2 
				1352.8,-132.8 1350.3,-135.2 1347,-135.5 1350.8,-137.6 1353.5,-139.2 1349.6,-141.8 1353.7,-144.5 1359.2,-147.7 1358.8,-151.3 
				1352,-154.4 1342.1,-154.5 1337,-152.7 1337.1,-150.5 1341,-148.6 1342.2,-145 1341.3,-143.3 1335.1,-144.6 1327.3,-147.2 
				1318.2,-145.7 1316,-143.2 1313.6,-146 1308.7,-145.4 1310.2,-148.5 1306.2,-148.8 1318.7,-151.9 1310.3,-155.3 1306,-152.2 
				1301.5,-150.2 1297.6,-152.2 1290.2,-151.3 1290,-153.7 1283.3,-151.7 1283.1,-154.7 1272.7,-153.7 1269.8,-156.8 1263.2,-158.2 
				1274.3,-162.9 1281.3,-160.5 1286.2,-163.8 1292.2,-165.8 1293,-163.2 1292.2,-159.9 1302.8,-165 1307.3,-165.4 1309.5,-162.2 
				1314,-165.9 1308.3,-169.6 1300,-169 1305.7,-175.8 1318.6,-176.7 1321.2,-176.9 1358.3,-179.8 1364.1,-180.2 			"/>
			<polygon class="st2" points="1368.1,-180.5 1370.1,-169.3 1368.5,-165.2 1360.1,-172.2 1359.6,-179.9 			"/>
			<path class="st2" d="M1364.2-145.7c6.7-0.5,7.6-0.6,7.6-0.6l-0.5,3.9l-8.1,4.5L1364.2-145.7z"/>
			<line class="st3" x1="1270.3" y1="-159" x2="1278.2" y2="-158.2"/>
			<polygon class="st2" points="1361,-160.6 1370.7,-163.2 1373.5,-159.2 1358.5,-156.5 			"/>
			<g id="Layer_2_1_">
				<polygon class="st4" points="982,-3.3 1390.8,-45.8 1394.8,-46.2 1393.2,-48.3 1326.8,-41.5 1257.3,-33.9 981.7,-5.6 				"/>
				<polygon class="st4" points="1070.6,5.4 1427.7,-33.2 1431.1,-33.4 1429.7,-38.8 1371.6,-32.9 1311,-25.3 1070.2,-0.2 				"/>
				<polygon class="st5" points="1367.5,-39.6 1366.3,-150.2 1363,-169.6 1365.1,-168.2 1368,-150.5 1369.2,-147.3 1375.8,-59.4 
					1376.8,-48.5 1377.3,-40.3 				"/>
				<polygon class="st6" points="1350.7,-44.7 1321.1,-40.4 1367,-32.5 1428.6,-39.9 1391.6,-50.6 1376.8,-48.5 1377.3,-40.3 
					1367.5,-39.6 1366.8,-47 				"/>
				<path class="st7" d="M1357.6-40.7c-3.6-0.1-5.4-3-5.9-2.8c-0.6,0.2,1.6,4.3,2.7,4.1s-0.2-4.4,1.8-5c1.7-0.5,5.3,1.8,4.6,2.9
					C1360.3-40.9,1358.8-40.6,1357.6-40.7z"/>
				<path class="st8" d="M1383.3-43.1c1.1,0,2.1-4.2,2.6-4.2s-0.6,4.4,0.1,4.4c0.7,0.1,2.2-4,3.3-3.9c1,0,1.6,3.4,0.3,3.8
					c-1.7,0.5-5.9-4.5-7.3-4C1381.2-46.6,1382.2-43.1,1383.3-43.1z"/>
			</g>
			<g id="Layer_4_1_">
			</g>
			<polyline class="st9" points="1308.8,-180.5 1309.8,-176.2 1307.6,-183.6 1316,-179.8 1320.3,-186.5 1329.6,-177.6 			"/>
			<polygon class="st10" points="1311.3,-173.7 1309.2,-181.3 1313.2,-180.5 1316.2,-179.2 1317.6,-181.3 1333.2,-176.2 			"/>
			<polygon class="st10" points="1330.3,-172.8 1330.3,-186.5 1433.5,-187.2 1432.8,-180.5 			"/>
			<polygon class="st10" points="1320.2,-185 1321.8,-187.2 1334,-186.5 1328,-169.6 			"/>
			<polygon class="st10" points="1364.1,-142.2 1371.8,-144.7 1372,-142.2 1364.8,-136.9 			"/>
			<polygon class="st10" points="1370.1,-153.9 1363,-152.7 1360.6,-156.9 1372,-158.2 			"/>
			<polygon class="st10" points="1360.6,-166.6 1372,-165.2 1372,-161.3 			"/>
		</g>
		<g id="Layer_6">
		</g>
		<g id="Layer_4">
		</g>
		<g id="Layer_2">
			<polygon class="st11" points="564.6,52.6 570,96.7 698.5,85.3 693.9,12.4 560.6,20.1 			"/>
			<polygon class="st12" points="580.2,180.4 560.6,19.9 696.5,13.1 707.2,163.5 			"/>
			<path class="st13" d="M553.9,160.4l26.4,20L570,96.7l-9.3-76l-0.1-0.8c0.1-1.8,0.2-4.1,0-6.9c-1.2-16.6-10.9-34.6-17.1-34.3
				c-6,0.3-9.7,17.5-8.3,30.8c0.4,3.5,1,6.5,1.7,8.7L553.9,160.4z"/>
			<line class="st14" x1="560.6" y1="19.9" x2="560.6" y2="17.4"/>
			<polygon class="st15" points="701.6,85.1 570,96.7 580.2,180.4 707.2,163.5 			"/>
			<polygon class="st16" points="586.8,29.2 591.5,87.4 681.1,78.7 678.2,23.3 			"/>
			<path class="st13" d="M696.1,12.3c-44.8,2.1-89.7,4.3-134.5,6.4c0-0.6,0-1.2,0-1.9c-0.2-10.7-3.9-23.7-15.5-38.3l132.3-4.7
				c0.5,0,1,0,1.4,0c11.7,1,15,26.8,15.9,36.8L696.1,12.3z"/>
			<path class="st17" d="M620.2,23.9c4.4,0.3,10,0.4,16.3,0c6-0.4,11.1-1.1,15.3-1.9"/>
		</g>
		<g id="Layer_3">
			<polygon class="st18" points="692.6,-8.8 696.1,1.8 702.1,3.8 814.5,-2.5 770.7,-11.1 			"/>
			<polyline class="st19" points="814.5,-0.3 814.5,76.8 710.2,85.1 702.8,5.9 707.2,85.1 701.6,85.1 696.1,1.8 702.1,3.8 			"/>
			<path class="st17" d="M811.1-0.3"/>
			<polygon class="st20" points="701.8,87.4 710.2,157.6 819.8,146.8 814.5,79.6 			"/>
			<polygon class="st21" points="712.2,149.3 819.2,138.5 814.5,129.4 712.2,139.4 			"/>
			<polygon class="st22" points="712.2,90.9 716.9,136.8 805,129.4 805,83.4 			"/>
			<polygon class="st17" points="722.2,13.1 794.2,10.9 794.2,66.8 722.2,72.2 			"/>
			<path class="st23" d="M738.4,6.3c1.2,0,3.1,0,5.4,0c12,0.1,15.7,0.8,21.5,0c2.1-0.3,5.2-0.8,8.7-2.1l6.1-0.4"/>
			<polygon class="st24" points="1014.8,-29.8 1018.2,-20.8 1013.9,-19.5 1009.8,-29.8 			"/>
		</g>
		<g id="Layer_5">
			<polygon class="st25" points="856.6,-79.7 805,-71.6 805,-8.8 805,-6 817.6,-2.5 816.9,109.4 819.2,138.5 856.6,150.5 			"/>
			<polygon class="st26" points="856.8,-79.7 969.8,-79.7 963.8,136 855.2,150.5 			"/>
			<polygon class="st27" points="865.5,-68.4 865.5,-21.9 958.4,-24.6 959.5,-68.4 			"/>
			<polygon class="st27" points="865.5,-8.8 864.5,35.4 864.5,36.6 958.2,30.3 959.5,-12.4 			"/>
			<polygon class="st28" points="864.5,49.8 864.5,93.7 955.7,84.1 957.6,42.4 			"/>
			<path class="st29" d="M897-70.6c1-0.1,2.5-0.1,4.3-0.2c8.5-0.1,9.4,1,15.5,0.8c4.6-0.2,6-0.9,13-1c1.3,0,2.3,0,3,0"/>
			<path class="st29" d="M894.6-12.4c1.4,0,3.4,0,6,0c8.3,0.1,9.4,0.7,15.5,0.7c6.1-0.1,9.8-0.8,11.7-1.2c1.6-0.4,2.9-0.7,3.8-1"/>
			<path class="st29" d="M894.9,45.3c1.2-0.2,3.2-0.5,5.7-0.7c7.3-0.6,8.4,0.4,13.3-0.3c3.6-0.5,4.2-1.2,9.8-2
				c1.8-0.3,3.3-0.4,4.3-0.5"/>
			<polygon class="st30" points="859.7,102.9 859.7,130.8 952.6,120.4 952.6,93.7 			"/>
			<polygon class="st31" points="856.6,142.2 964,129.4 952.6,120.4 859.7,130.8 			"/>
			<path class="st26" d="M1087.2,145.3"/>
		</g>
		<g id="Layer_7">
			<polygon class="st32" points="969.8,-75.2 1028.6,-75.2 1058,-73.4 975.4,-71 			"/>
			<polygon class="st33" points="976.9,-69.9 1059.7,-72 1058,-17 978.2,-11.7 			"/>
			<polyline class="st32" points="969.6,-73.4 969.5,-68.4 964,130.8 969.8,133.8 976.9,-69.9 969.8,-75.2 			"/>
			<polygon class="st34" points="976.9,-11.7 974.8,-9.6 969.8,133.8 1051.8,120.4 1052.8,61 1057,61 1059.7,-16 			"/>
			<polygon class="st35" points="990.4,0.5 988.5,57.4 1037.3,51.9 1041,-3.4 			"/>
			<path class="st36" d="M1005.1,4.9c1.2-0.2,3-0.5,5.2-0.4c3.3,0.2,3.9,1,6.2,0.8c2.2-0.2,2.4-1,5.9-1.8c1.5-0.3,2.7-0.5,3.6-0.6"
				/>
			<polygon class="st37" points="981.4,-63.7 983.4,-16.6 1052.3,-20 1052.3,-64.9 			"/>
			<path class="st34" d="M976.9-69.9"/>
			<polygon class="st24" points="1018.2,-29.8 1018.2,-19.5 1024.4,-20.8 1026,-29.8 			"/>
			<polygon class="st38" points="1005.1,-29.8 1007.2,-19.5 1009.8,-19.5 1009.8,-29.8 			"/>
			<rect x="997.2" y="-29.8" class="st24" width="3.2" height="7.9"/>
			<rect x="990.4" y="-29.8" class="st24" width="4.5" height="9"/>
			<polygon class="st24" points="1026,-29.8 990.4,-29.8 988.5,-29.8 988.5,-61 1026,-61 			"/>
			<polygon class="st39" points="975.4,81.7 975.4,122.3 1046.2,110.1 1049.5,72.2 1014.8,78.1 			"/>
			<polygon class="st40" points="976.9,-71 1059.7,-73.4 1059.7,-17.1 976.9,-11.7 			"/>
		</g>
		<g id="Layer_8">
			<polygon class="st41" points="527.2,164.2 553.9,160.4 580.2,180.4 707.2,163.5 710.2,157.6 819.8,146.8 840.4,145.3 
				855.2,150.5 1051.8,120.4 1058,112.3 1182.2,93.7 1195.6,96.7 1309.8,75.7 1309.8,68 1328.6,62.5 1355.3,68 1491.1,35.4 
				1505.8,35.4 1555.5,24.2 1555.5,-0.3 1601.3,-8.8 1601.3,206 527.2,206 			"/>
		</g>
		<g id="Layer_10">
			<polygon class="st42" points="580.2,180.4 609.2,206 755.2,206 780.2,206 707.2,163.5 			"/>
			<polygon class="st42" points="820.6,146.8 906.9,195.6 928.8,206 785.7,206 710.9,157.6 			"/>
			<polygon class="st42" points="855.2,150.5 942.4,206 1096.7,206 963.8,136 			"/>
			<polygon class="st42" points="1051.8,120.4 1171.7,206 1102.1,206 964,130.8 			"/>
		</g>
		<g id="Layer_11">
			<line class="st43" x1="753.5" y1="24.2" x2="738.4" y2="35.4"/>
			<line class="st44" x1="738.4" y1="22.1" x2="734.4" y2="24.2"/>
			<line class="st45" x1="665.8" y1="55.4" x2="651.9" y2="72.2"/>
			<line class="st45" x1="654.7" y1="36.6" x2="611.5" y2="75.8"/>
			<line class="st45" x1="624.1" y1="36.6" x2="611.5" y2="43.6"/>
		</g>
		<g id="Layer_12">
		</g>
		<g id="Layer_13">
			<polygon class="st46" points="1060.1,-22.2 1102.8,-26.5 1096.6,93.2 1052.3,102.2 1052.3,61.8 1057.6,62.2 			"/>
			<polygon class="st47" points="1060.1,-32.3 1102.8,-26.5 1060.1,-22.2 			"/>
			<polygon class="st48" points="1096.6,93.2 1099.6,102.2 1052.3,113.8 1052.3,102.2 			"/>
			<polygon class="st49" points="1052.3,122.7 1099.6,111 1099.6,102.2 1052.3,113.8 			"/>
			<polygon class="st49" points="1076,51 1099,47.4 1096.6,93.2 1052.3,102.2 1052.3,61.8 1057.6,62.2 1057.8,54.7 			"/>
			<polygon class="st50" points="1060.1,-11.4 1092.7,-14.8 1091.2,36.4 1058.2,41.8 			"/>
			<line class="st51" x1="1068.6" y1="-6.8" x2="1063.2" y2="1.1"/>
			<line class="st51" x1="1081.3" y1="-9" x2="1065.8" y2="19.5"/>
			<path class="st52" d="M1066.8-19.7c0.9,0,2.4,0,4.4,0c7.6,0,9,0.1,11.3-0.3c3.4-0.6,6.7-1.8,6.6-2.1c-0.1-0.3-1.8-0.1-3.3,0"/>
		</g>
		<g id="Layer_14">
			<polygon class="st53" points="1060.1,-33.9 1109.2,-27.2 1104.3,109.7 1099.6,109.7 1099.6,102.2 1096.6,93.2 1102.8,-26.5 
				1060.1,-32.3 			"/>
			<polygon class="st54" points="1132.2,-29.2 1162.1,-31 1109.2,-37.5 1060.1,-33.9 1109.2,-27.2 			"/>
			<polygon class="st55" points="1129.3,105.6 1155.8,100.6 1155.8,93.2 1104.6,102.2 1104.3,109.7 			"/>
			<polygon class="st56" points="1125.1,90 1148,86.7 1155.8,93.2 1104.6,102.2 1105,93.2 			"/>
			<polygon class="st57" points="1160,19.5 1155.8,93.2 1148,86.7 1155.8,39.2 1160,-30.9 1162.1,-31 			"/>
			<polygon class="st58" points="1106.6,46.1 1155.8,39.2 1148,86.7 1105,93.2 			"/>
			<polygon class="st59" points="1116.7,61.9 1116.7,78.2 1139.6,74.8 1141.2,59 			"/>
			<polygon class="st60" points="1108.2,1.1 1106.6,46.1 1155.8,39.2 1160,-30.9 1109.2,-27.2 			"/>
			<polygon class="st61" points="1116.7,-17.5 1113.3,33.9 1148,29.8 1150.5,-19.7 			"/>
			<path class="st62" d="M1124.8-21c1.2-0.3,3.1-0.6,5.3-0.6c3.8,0,4.4,1,7,0.6c2.7-0.4,3.1-1.6,6.3-2.1c1.6-0.2,3-0.1,3.9,0"/>
			<polygon class="st63" points="1129,-26.5 1129,-23.2 1141.2,-23.2 1141.2,-27.2 			"/>
			<line class="st64" x1="1191.1" y1="-21" x2="1178.2" y2="1.1"/>
			<line class="st65" x1="1181.8" y1="-23.2" x2="1175.2" y2="-14.8"/>
		</g>
		<g id="Layer_15">
			<path class="st66" d="M1157.6,89.3l4.5-120.2l-28.8-3.5l-17.7-3v-4.2c0.2-0.7,0.6-1.5,1.1-2.4c1.6-2.7,4-4.4,5.4-5.3
				c17.7-11.1,29.9-18.7,37.3-14.9c1.5,0.8,5.7,3.5,5.4,14l-2.7,139.5H1157.6z"/>
			<path class="st67" d="M1223.8-67.9c1,0.7,2.1,1.5,3,2.7c3.7,4.5,2.6,9.7,2.2,11.2l-64.2,2.8c0-0.7,0-1.4,0-2.1
				c-0.3-5.3-3.1-9.5-5.5-12.2L1223.8-67.9z"/>
			<polygon class="st68" points="1229.5,-25.2 1229.8,7 1226.2,6.8 1221.6,78.2 1220.1,78.2 1220.1,44 1223.8,-53.8 1229,-54 			"/>
			<polygon class="st69" points="1190.2,82.9 1162.1,88.1 1157.6,89.3 1168.8,93.2 1168.8,102.2 1231.3,87.9 1229.8,81 1223.3,78.2 
							"/>
			<polyline class="st70" points="1194.5,89.3 1168.8,93.2 1229.8,82.9 			"/>
			<g id="Layer_16">
				<polygon class="st71" points="1194.3,47.6 1218.8,43.5 1223.8,-53.8 1208.5,-52.9 1208.5,-25.2 1205,-25.2 1205,-24.3 
					1205,-14.8 1208.5,-14.8 1208.5,41 1162.8,48.9 1163.2,52.7 				"/>
				<polygon class="st72" points="1208.5,-51.2 1208.5,-25.2 1205,-25.2 1205,-14.8 1208.5,-14.8 1208.5,41 1162.8,48.9 
					1164.8,-50.2 1208.5,-52.9 				"/>
				<polyline class="st3" points="1222.8,-25.2 1220.1,44 1163.2,52.7 1164.8,-50.2 1223.8,-53.8 1222.8,-25.2 				"/>
				<polyline class="st73" points="1192.6,82.6 1220.1,78.2 1218.8,43.5 1163.2,52.7 1162.1,88.1 1192.6,82.6 1192.6,82.6 				"/>
				<polygon class="st74" points="1161.2,101.4 1168.8,103.5 1168.8,93.2 1157.6,89.3 1157.6,100.1 				"/>
				<polygon class="st75" points="1168.5,-42.2 1168.5,40.5 1200.8,35.1 1200.8,-44 				"/>
				<path class="st76" d="M1203.8-43.5c1.8,2.7,2.6,5.1,3,6.7c0.8,2.9,1.8,6.5-0.5,8.2c-0.9,0.7-2,0.9-2.8,1"/>
				<line class="st77" x1="1181.8" y1="-32.4" x2="1171.7" y2="-16.6"/>
				<line class="st77" x1="1194.5" y1="-32.3" x2="1178.5" y2="7.1"/>
				<path class="st78" d="M1099.6,109.7"/>
				<polygon class="st42" points="1171.7,206 1054.5,122.3 1099.6,111 1176.8,206 				"/>
			</g>
			<g id="Layer_17">
			</g>
		</g>
		<g id="Layer_18">
		</g>
		<g id="Layer_19">
			<path class="st42" d="M1186.5,206h44.9H1186.5z"/>
			<polyline class="st42" points="1235.2,206 1235.2,206 1235.2,206 1235.2,206 			"/>
			<polygon class="st42" points="1104.3,109.7 1189.3,206 1244.8,206 1157.6,102.2 			"/>
		</g>
		<g id="Layer_20">
			<polygon class="st42" points="1157.6,100.1 1247.8,206 1388.7,206 1314.1,153.3 1231.3,90.2 1230.5,89.1 1217.1,91.9 
				1169.8,103.5 			"/>
		</g>
		<polygon class="st79" points="856.6,-54.1 856.6,-15.2 968.2,-19.6 969.8,-79.7 856.8,-79.7 		"/>
	</g>
	<g id="Layer_10_1_">
	</g>
	<g id="Layer_6_1_">
	</g>
	<g id="Layer_3_2_">
		<polygon class="st80" points="1108.2,1.8 1106.6,46.8 1155.8,40 1160,-30.2 1109.2,-26.5 		"/>
	</g>
	<g id="Layer_4_2_">
		<polyline class="st81" points="1107.5,43.4 1122.8,-5.1 1171.7,-10.8 		"/>
		<line class="st82" x1="1122.1" y1="-5.3" x2="1107.1" y2="43"/>
	</g>
	<g id="Layer_15_1_">
		<path class="st83" d="M1128.2-12.1c0.3,0.2,2.8-3.9,6.3-8.7c4.7-6.5,6-7.1,8.7-10.9c2.2-3.2,5.1-8.2,7.1-15.5l-22.2,1.7
			c0,0.4,0.1,0.9,0.2,1.5c0.8,6.4,1.3,8.8,1.8,12.4c0.9,6.6,1.4,10,0.2,14.1C1129.6-14.3,1128.1-12.2,1128.2-12.1z"/>
		<path class="st84" d="M1128.3-12.1c-0.7,1.2-1.4,2.5-2.7,3.9c-3.4,3.3-7.6,3.7-9.5,3.7l3-24.9l11.6,1c0,0.2,0.1,0.6,0.1,1.1
			C1131.2-25.4,1131.8-18.5,1128.3-12.1z"/>
		<path class="st85" d="M1161.2-42.8c10,0.7,20.1,1.3,30.1,2c-0.5,0.2-1.2,0.6-2,1c0,0-4,2-7.6,3.8c-4.4,2.3-10,5.1-13.3,7.3
			c-3.2,2.1-7.4,5.7-8.1,10.9c-0.7,0.2-1.7,0.5-2.8,1c-6.1,2.6-3.6,6.4-4.4,6.5c-1,0.1-7.4-5.3-6.9-13s7.6-14.3,13.3-18.5
			L1161.2-42.8z"/>
		<path class="st86" d="M1309.8-133.7c-10.3,2.6-18.6,2.8-24.3,2.5c-13.4-0.7-25.3-4.9-33.6-7.9c-0.9-0.3-1.6-0.6-2-0.7l0.5,35.4
			c9.9,2.2,18.1,1.4,23,0.5c7.3-1.3,18.7-3.3,27.4-12.9c1.3-1.4,2.3-2.8,3.3-4.2c2.8-4.2,4.2-8.2,5-10.8L1309.8-133.7z"/>
		<path class="st87" d="M1316.8-135l-6.7-5.3c0,0.4,0,0.8-0.1,1.3c-0.2,2.1-0.6,4.3-1.7,7.4c-1.9,5.5-5,11.7-5.5,12.7L1316.8-135z"
			/>
		<path class="st84" d="M1349.9-176.3c2.3-1.3,4.8-2.7,8.6-3.7c9.5-2.6,18.3-0.8,22,0.2l-26,32l-22.6-7.7c0.1-0.3,0.3-0.9,0.6-1.5
			C1333.6-159.9,1337.9-169.5,1349.9-176.3z"/>
		<path class="st83" d="M1363.3-182.4c-0.4-0.4-8.7,3.7-19.6,8.3c-14.7,6.2-17.8,6.3-26.3,10c-7.1,3.1-16.7,8.3-26.7,17l45.9,9.8
			c0.2-0.5,0.5-1.2,0.9-2.1c3.6-9.1,4.4-12.6,6.3-17.7c3.5-9.5,5.3-14.3,10.8-19.1C1359-180,1363.6-182,1363.3-182.4z"/>
	</g>
	<g id="Layer_2_2_">
		<g>
			<g class="st88">
				<g>
					<defs>
						<polygon id="SVGID_1_" points="1106.2,47.2 1121,-7.5 1172.3,-11.1 1157.6,43.6 						"/>
					</defs>
					<clipPath id="SVGID_2_">
						<use xlink:href="#SVGID_1_"  style="overflow:visible;"/>
					</clipPath>
					<g class="st89">
						<g>
							<g>
								<g>
									<path class="st90" d="M1148.1-3.7l-2.8,0.2c0.5,0,0.9,0.1,1.3,0c0.2,0,0.5-0.1,0.8-0.1C1147.7-3.6,1147.8-3.7,1148.1-3.7
										 M1115.7,38.8l13.1-37l33.3-3.9l-11.9,35.5l-0.4,0.1L1115.7,38.8 M1140.5-3.5l0.7-2.7l12.7-1.4l-0.6,2.2
										c0.2,0,0.3-0.1,0.5-0.1c0.7-0.1,1.4-0.2,2.1-0.2s1.4-0.1,2-0.1l-1.2,2.8c-0.6,0-1.1,0-1.7,0c-0.5,0-1.1,0.1-1.6,0.2
										c-1.3,0.2-2,0.5-2.8,0.8c-0.9,0.4-1.9,0.8-3.5,1c-0.5,0.1-1,0.1-1.4,0.2c-0.9,0.1-1.6,0-2.2-0.1c-0.8-0.1-1.6-0.1-3.2,0
										c-2.3,0.2-4,0.5-4.6,0.7l-0.2-2.7C1136.3-2.9,1138.2-3.3,1140.5-3.5 M1171.1-10.3l-47.5,5.8l-6.2,19.6l-10,31.2l46.7-7.9
										L1171.1-10.3"/>
									<path class="st91" d="M1107.5,46.3l10-31.2l6.2-19.6l47.5-5.8l-17,48.7L1107.5,46.3 M1172.3-11.1L1122.8-5l-6.4,20.2
										l-10.2,32.1l48.7-8.2L1172.3-11.1"/>
									<polyline class="st92" points="1160.8,-1.2 1129.5,2.5 1116.8,38 1149.3,32.9 1160.8,-1.2 									"/>
									<path class="st93" d="M1116.8,38l12.5-35.5l31.3-3.7L1149.2,33L1116.8,38 M1162-2l-33.3,3.9l-13.1,37l34-5.2l0.4-0.1
										L1162-2"/>
									<path class="st93" d="M1155.8-5.7c-0.7,0-1.4,0.1-2.1,0.2c-0.2,0-0.3,0.1-0.5,0.1l-0.4,1.3l-4.9,0.3
										c-0.2,0-0.4,0.1-0.6,0.1c-0.3,0.1-0.6,0.1-0.8,0.1c-0.5,0-0.8,0-1.3,0l-4.9,0.3l0.1-0.3c-2.3,0.2-4.1,0.6-4.8,0.8l0.2,2.7
										c0.6-0.2,2.4-0.5,4.6-0.7c1.5-0.1,2.3,0,3.2,0c0.7,0.1,1.3,0.1,2.2,0.1c0.4,0,0.9-0.1,1.4-0.2c1.6-0.3,2.6-0.7,3.5-1
										c0.8-0.3,1.6-0.6,2.8-0.8c0.5-0.1,1-0.1,1.6-0.2c0.5,0,1.1-0.1,1.7,0l1.2-2.8C1157.2-5.8,1156.6-5.8,1155.8-5.7"/>
									<polyline class="st94" points="1152.7,-6.8 1141.8,-5.6 1141.5,-3.9 1152.2,-4.7 1152.7,-6.8 									"/>
									<path class="st95" d="M1141.5-3.9l0.4-1.6l10.8-1.2l-0.6,2.1L1141.5-3.9 M1153.8-7.6l-12.7,1.4l-0.7,2.7l-0.1,0.3l4.9-0.3
										l2.8-0.2L1153-4l0.4-1.3L1153.8-7.6"/>
								</g>
							</g>
						</g>
					</g>
				</g>
			</g>
		</g>
	</g>
	<g id="Layer_5_1_">
	</g>
	<g id="Layer_7_1_">
		<polygon class="st96" points="564.6,52.6 570,96.7 698.5,85.3 693.9,12.4 560.6,20.1 		"/>
	</g>
	<g id="Layer_13_1_">
		<path class="st85" d="M602,12.2c14.7,4.6,22.4,7.9,26.7,10.2c0.5,0.2,1.3,0.7,2.4,0.8c6.4,0.6,12.4-9.7,16.2-17.8l-0.8-10.2
			l-4-2.7L602,12.2z"/>
		<path class="st97" d="M643-25l-0.2-0.1l36-16.7c0,2.6,0,4.8,0,6.3c-0.1,20-1.1,25.9-4.5,31c-0.6,0.8-1,1.3-1.5,2
			c-4,4.8-13,13.5-34.6,23.3l4.7-10.6L643-25z"/>
		<path class="st85" d="M549.6-56.9c9-8,18-16,27-23.9c0.3,0.7,0.6,1.8,1.1,3.1c0,0,2.2,6.2,4.3,11.7c2.6,6.9,5.9,15.6,9.1,21.4
			c3.2,5.7,9.3,14,22,21.5c0,0.8,0,2.2,0.4,3.7c2.3,8.8,14,11.7,13.6,12.5c-0.4,1-19-0.5-38.4-11.1s-31.2-25.5-37.9-36.2L549.6-56.9
			z"/>
		<path class="st86" d="M618.4-58.1c-0.3-12.5,1.9-23,3.9-30.3c4.7-17.1,13.3-33.1,19.4-44.4c0.6-1.1,1.1-2.1,1.5-2.7l-43.8,8.6
			c-5.5,13-6.9,23.3-7.2,29.3c-0.5,9-1.3,23,8,31.9c1.3,1.3,2.8,2.4,4.2,3.2c4.4,2.6,8.9,3.5,11.9,3.9L618.4-58.1z"/>
		<path class="st87" d="M618-49.5l8.5-9.7c-0.5,0.1-1,0.1-1.5,0.2c-2.5,0.2-5.1,0.2-8.6-0.5c-6.3-1.2-13-3.7-14.1-4.2L618-49.5z"/>
		<path class="st85" d="M570.7,38.3c9-8,18-16,27-23.9c0.3,0.7,0.6,1.8,1.1,3.1c0,0,2.2,6.2,4.3,11.7c2.6,6.9,5.9,15.6,9.1,21.4
			c3.2,5.7,9.3,14,22,21.5c0,0.8,0,2.2,0.4,3.7c2.3,8.8,14,11.7,13.6,12.5c-0.4,1-19-0.5-38.4-11.1S578.5,51.7,571.8,41L570.7,38.3z
			"/>
	</g>
	<g id="Layer_8_1_">
		<g>
			<g class="st88">
				<defs>
					<polygon id="SVGID_3_" class="st88" points="562.2,99.9 563.5,40.3 708.7,35.2 707.5,94.8 					"/>
				</defs>
				<clipPath id="SVGID_4_">
					<use xlink:href="#SVGID_3_"  style="overflow:visible;"/>
				</clipPath>
				<g class="st98">
					<g>
						<g>
							<g>
								<g>
									<defs>
										<polyline id="SVGID_5_" points="562.2,99.9 573.9,43.3 708.7,35.2 697.1,91.7 562.2,99.9 										"/>
									</defs>
									<clipPath id="SVGID_6_">
										<use xlink:href="#SVGID_5_"  style="overflow:visible;"/>
									</clipPath>
									<path class="st99" d="M652.5,43.8l0.3,3.1c0,0-0.1,0-0.1,0l0,0.1c-0.1,0-0.1,0-0.2,0l31.1-3.2L679,80.9l-0.2,0l0,0.2
										l-0.5,0l-88.7,11.1l3.4-38.9l0.2,0l0-0.2l0.5,0l27.4-2.8l1-3.3c0,0,0.1,0,0.1,0l0.1-0.2c0.9,0,2.1,0,3.3,0
										c1.3,0,2.7-0.1,4.2-0.2c2.4-0.2,5.1-0.4,7.9-0.6C643,45.3,647.9,44.6,652.5,43.8 M703.2,36.3L573.7,49.1l-0.5,20.9
										l-0.7,28.4l125.3-14.9L703.2,36.3"/>
									<path class="st100" d="M572.5,98.5l0.7-28.4l0.5-20.9l129.4-12.9l-5.4,47.3L572.5,98.5 M704.2,35.5l-0.6,0L573.3,48.5
										l-0.5,0l0,0.2l-0.6,21.4l-0.7,29.1l127.2-15.2L704.2,35.5"/>
									<path class="st101" d="M635.8,77l-1.4-0.8l15.8-11.9l1.4,0.8L635.8,77 M603.8,62.8l13.2-5.4l0.7,1.1l-13.2,5.4L603.8,62.8
										 M606.3,79.1l47.3-28.4l1.1,0.9L607.4,80L606.3,79.1 M682.6,44.6L594,53.7l-3.3,37.6l87.1-10.9L682.6,44.6"/>
									<path class="st100" d="M682.6,44.6L682.6,44.6L678,80.4l-87.2,10.9l0,0l3.3-37.6L682.6,44.6 M683.7,43.8L652.6,47l-0.8,0.1
										c-4.5,0.8-9.3,1.5-14.3,2c-3,0.3-5.8,0.6-8.2,0.7c-0.1,0-0.3,0-0.4,0c0,0,0,0-0.1,0c-0.1,0-0.2,0-0.3,0c-0.1,0-0.2,0-0.2,0
										c0,0-0.1,0-0.1,0c-1.7,0.1-3.3,0.2-4.7,0.2l-2.4,0.2l-27.4,2.8l-0.5,0l0,0.2L589.8,92l88.7-11.1l0.3,0l0.2,0L683.7,43.8"/>
									<path class="st102" d="M652.5,43.8c-4.6,0.9-9.5,1.5-14.8,2.1c-2.9,0.3-5.6,0.5-7.9,0.6c-1.5,0.1-3,0.2-4.2,0.2
										c-1.3,0-2.4,0.1-3.3,0l-0.1,0.2l-0.9,3.1c0.6,0,1.4,0,2.2-0.1c1.4,0,3-0.1,4.7-0.2c0,0,0.1,0,0.1,0c0.1,0,0.2,0,0.2,0
										c0.1,0,0.2,0,0.3,0c0,0,0,0,0.1,0c0.1,0,0.2,0,0.4,0c2.5-0.2,5.3-0.4,8.2-0.7c5.1-0.5,9.8-1.2,14.3-2
										c0.4-0.1,0.6-0.1,1-0.2c0,0,0.1,0,0.1,0L652.5,43.8"/>
									<polyline class="st103" points="616.9,57.4 603.8,62.8 604.4,63.8 617.6,58.4 616.9,57.4 									"/>
									<polyline class="st103" points="653.5,50.7 606.3,79.1 607.4,80 654.6,51.6 653.5,50.7 									"/>
									<polyline class="st103" points="650.3,64.3 634.5,76.2 635.8,77 651.6,65.1 650.3,64.3 									"/>
								</g>
							</g>
						</g>
					</g>
				</g>
			</g>
		</g>
	</g>
	<g id="Layer_14_1_">
		<path class="st83" d="M924.7-61.8c0.2,0.5,7.7-2,17.3-4.5c13-3.3,15.4-2.9,22.9-5c6.3-1.8,15.1-5,25-11.5l-33.5-16.9
			c-0.3,0.4-0.7,1.1-1.2,1.9c-5,7.9-6.5,11.1-9.2,15.5c-5,8.3-7.6,12.5-13.1,16.1C928.7-63.2,924.6-62.1,924.7-61.8z"/>
		<path class="st84" d="M924.9-61.7c-2.1,0.8-4.4,1.7-7.6,2.1c-8,0.9-14.5-2.3-17.2-3.9l28.1-25.7l15.8,11c-0.2,0.3-0.5,0.8-0.8,1.3
			C941.6-74.4,935.9-66.1,924.9-61.7z"/>
		<path class="st104" d="M890.7-61c2.3-2.3,5.5-5.5,8.9-9.6c5.2-6.2,8.8-10.5,7.3-12.6c-0.9-1.3-3.6-1.2-6-1
			c-6.4,0.4-12.2,3.6-14.8,5.2l-17-18.1l-5.8,8.2L890.7-61z"/>
		<path class="st105" d="M903.9-85.5l-27.5-28.3c-0.1-0.4-0.3-0.8-0.6-1.1c-3.8-5.2-19.2-1.1-22.2-0.3L887-78.6
			c0.8-0.5,1.6-1,2.5-1.5c6.4-3.3,12.3-3.9,15.9-4L903.9-85.5z"/>
		<path class="st85" d="M895.5-114.9c14.3,3.9,21.8,6.6,26,8.5c0.4,0.2,1.2,0.6,2.4,0.7c6.3,0.5,12.1-8.1,15.8-14.8L939-129
			l-3.8-2.3L895.5-114.9z"/>
		<path class="st97" d="M935.2-145.9L935-146l35-13.9c0,2.2,0,4,0,5.2c-0.1,16.6-1.1,21.6-4.4,25.8c-0.5,0.7-1,1.1-1.5,1.6
			c-3.9,4-12.7,11.2-33.7,19.4l4.6-8.8L935.2-145.9z"/>
		<path class="st86" d="M877.6-139.9c-6.8-6.7-11.2-13.7-13.9-18.9c-6.4-12.1-9.9-25.9-12.3-35.5c-0.3-1-0.5-1.8-0.6-2.4l-21.1,29.6
			c3.7,10.3,8.4,16.8,11.4,20.3c4.5,5.2,11.5,13.4,21.7,13.1c1.5-0.1,2.9-0.3,4.2-0.6c4-1,7.1-3.1,9.1-4.6L877.6-139.9z"/>
		<path class="st87" d="M880.9-133.4l-0.5-12.9c-0.3,0.4-0.6,0.8-1,1.2c-1.7,1.9-3.6,3.6-6.6,5.6c-5.4,3.5-12,6.2-13.1,6.7
			L880.9-133.4z"/>
		<path class="st104" d="M1146.1-68c0.7,2.9,1.8,6.9,3.4,11.4c2.4,6.9,4.1,11.7,6.1,11.4c1.3-0.2,2.1-2.4,2.9-4.4
			c2.1-5.4,2-11.4,1.8-14.3l18.8-6l-3.6-8.3L1146.1-68z"/>
		<path class="st105" d="M1158.2-46.6l29.8-10.2c0.3,0.1,0.7,0.1,1,0c5-0.9,7.8-15.2,8.3-17.9l-37.7,11.3c0.1,0.9,0.1,1.8,0.1,2.7
			c-0.1,6.6-1.8,11.7-3.1,14.7L1158.2-46.6z"/>
		<path class="st86" d="M935.2-192.2c-2.7,8.5-5.8,14.5-8.1,18.3c-5.5,9-12,15.1-16.7,19.3c-0.5,0.4-0.9,0.8-1.1,1l17.2,18.1
			c4.8-5.8,7.6-11.9,9.1-15.8c2.2-5.8,5.6-14.8,4.3-25.9c-0.2-1.6-0.4-3.1-0.8-4.5c-0.9-4.1-2.3-7.2-3.3-9.1L935.2-192.2z"/>
		<path class="st87" d="M937.2-197.8l-5.1,1.9c0.2,0.2,0.4,0.5,0.6,0.7c0.9,1.2,1.8,2.7,2.9,5c1.9,4.2,3.7,9.6,4,10.5L937.2-197.8z"
			/>
	</g>
	<g id="Layer_11_1_">
		<g>
			<g class="st88">
				<g>
					<defs>
						<polygon id="SVGID_7_" points="857.1,-15.7 857.8,-63.7 971.9,-65.2 971.2,-17.2 						"/>
					</defs>
					<clipPath id="SVGID_8_">
						<use xlink:href="#SVGID_7_"  style="overflow:visible;"/>
					</clipPath>
					<g class="st106">
						<g>
							<g>
								<g>
									<path class="st107" d="M867.1-22.2l0.5-34.8l95-1.3L961-25.5h-0.5L867.1-22.2 M912.5-62c0.4,0,0.9,0,1.3,0
										c1.8-0.1,3.1-0.2,4.4-0.4c2-0.2,4.4-0.4,8.6-0.5h3l-0.1,3.7h-3c-4,0.1-6,0.3-8.1,0.5c-1.4,0.1-2.9,0.3-4.8,0.4
										c-0.5,0-1.1,0-1.5,0c-2.2,0-3.8-0.1-5.4-0.2c-1.9-0.1-4-0.3-7.6-0.2c-0.3,0-0.6,0-1,0c-0.8,0-1.5,0.1-2.2,0.1
										c-0.8,0-1.5,0.1-2,0.1l-0.5-3.6c0.6-0.1,1.4-0.1,2.3-0.1c0.6,0,1.3-0.1,2.1-0.1h0.1c0.4,0,0.7,0,1.1,0
										c3.9-0.1,6.1,0.1,8.1,0.3C909.2-62.1,910.5-62,912.5-62 M970.9-64.5L859-63l-0.5,18.5L858-16.4L968.6-21L970.9-64.5"/>
									<path class="st108" d="M858.1-16.5l0.4-28.1l0.5-18.5l111.9-1.5l-2.2,43.4L858.1-16.5 M971.9-65.2l-114,1.5l-0.5,19.2
										L857-15.7l112.6-4.7L971.9-65.2"/>
									<polyline class="st109" points="961.5,-57.6 868.6,-56.3 868.1,-23 960,-26.2 961.5,-57.6 									"/>
									<path class="st108" d="M868.1-23l0.5-33.3l92.9-1.2L960-26.1L868.1-23 M962.5-58.3l-95,1.3L867-22.2l93.4-3.2h0.5
										L962.5-58.3"/>
									<path class="st110" d="M929.9-63h-3c-4.3,0.1-6.6,0.3-8.6,0.5c-1.4,0.1-2.7,0.3-4.4,0.4c-0.5,0-0.9,0-1.3,0
										c-2,0-3.3-0.1-4.9-0.2c-2-0.1-4.2-0.3-8.1-0.3c-0.4,0-0.7,0-1.1,0h-0.1c-0.8,0-1.5,0.1-2.1,0.1c-0.9,0-1.7,0.1-2.3,0.1
										l0.5,3.6c0.5,0,1.2-0.1,2-0.1c0.7,0,1.4-0.1,2.2-0.1c0.3,0,0.7,0,1,0c3.6,0,5.6,0.1,7.6,0.2c1.6,0.1,3.2,0.2,5.4,0.2
										c0.5,0,1,0,1.5,0c2-0.1,3.4-0.2,4.8-0.4c2-0.2,4.1-0.4,8.1-0.5h3L929.9-63"/>
								</g>
							</g>
						</g>
					</g>
				</g>
			</g>
		</g>
	</g>
	<g id="Layer_12_1_">
		<line class="st82" x1="858" y1="-64" x2="971.1" y2="-65.3"/>
		<polyline class="st82" points="970.9,-65.9 857.9,-64.6 857.2,-16.3 		"/>
	</g>
</g>
<g id="Layer_3_3_">
	<path class="st12" d="M697.6,84.2c-6.6,0.8-13.2,1.6-19.9,2.3"/>
	<polyline class="st12" points="571.2,47.6 703.2,35.9 572.2,48.2 572.3,98.7 571.2,48 	"/>
	<path class="st12" d="M283.9,359.5"/>
</g>
<g id="Layer_2_3_">
	<path class="st84" d="M1207.1-80.7c-2,0.6-4.2,1.2-7.3,1.4c-7.7,0.6-13.8-1.6-16.5-2.7l26.9-18.1l15.1,7.7
		c-0.2,0.2-0.4,0.5-0.8,0.9C1223.1-89.6,1217.6-83.7,1207.1-80.7z"/>
	<path class="st83" d="M1201.7-79.2c0.2,0.3,7.4-1.4,16.7-3.1c12.5-2.4,14.8-2,22-3.5c6.1-1.3,14.4-3.5,23.9-8.1l-32.1-11.9
		c-0.3,0.3-0.7,0.8-1.1,1.3c-4.8,5.6-6.2,7.8-8.8,10.9c-4.8,5.8-7.3,8.8-12.6,11.4C1205.5-80.3,1201.5-79.5,1201.7-79.2z"/>
</g>
</svg>
