<?xml version="1.0" encoding="utf-8"?>
<!-- Generator: Adobe Illustrator 19.0.0, SVG Export Plug-In . SVG Version: 6.00 Build 0)  -->
<svg version="1.1" id="Layer_1" xmlns="http://www.w3.org/2000/svg" xmlns:xlink="http://www.w3.org/1999/xlink" x="0px" y="0px"
	 viewBox="528 -187.5 1074.2 392.5" style="enable-background:new 528 -187.5 1074.2 392.5;" xml:space="preserve">
<style type="text/css">
	.st0{fill:#C4F0F7;stroke:#F5F7F7;stroke-miterlimit:10;}
	.st1{fill:#35F706;stroke:#FFFFFF;stroke-miterlimit:10;}
	.st2{fill:#42F906;}
	.st3{fill:none;}
	.st4{fill:#747A7A;stroke:#FFFFFF;stroke-miterlimit:10;}
	.st5{fill:#756041;stroke:#FFFFFF;stroke-miterlimit:10;}
	.st6{fill:#395638;stroke:#FFFFFF;stroke-miterlimit:10;}
	.st7{fill:#58DB52;stroke:#FFFFFF;stroke-miterlimit:10;}
	.st8{fill:#55F20C;stroke:#FFFFFF;stroke-miterlimit:10;}
	.st9{fill:#06F733;stroke:#FFFFFF;stroke-miterlimit:10;}
	.st10{fill:#06F733;}
	.st11{fill:none;stroke:#FFFFFF;stroke-miterlimit:10;}
	.st12{fill:#24B3C6;stroke:#FFFFFF;stroke-miterlimit:10;}
	.st13{fill:#0C0C0C;stroke:#FFFFFF;stroke-miterlimit:10;}
	.st14{fill:none;stroke:#1C1C1C;stroke-miterlimit:10;}
	.st15{fill:#D2D8D8;stroke:#FFFFFF;stroke-miterlimit:10;}
	.st16{fill:#D2D8D8;stroke:#717171;stroke-width:5;stroke-miterlimit:10;}
	.st17{fill:#513E5E;stroke:#717171;stroke-width:5;stroke-miterlimit:10;}
	.st18{fill:#333333;stroke:#717171;stroke-width:5;stroke-miterlimit:10;}
	.st19{fill:#41086B;stroke:#717171;stroke-width:5;stroke-miterlimit:10;}
	.st20{fill:#690AA0;stroke:#717171;stroke-width:5;stroke-miterlimit:10;}
	.st21{fill:#AB08F7;stroke:#717171;stroke-width:5;stroke-miterlimit:10;}
	.st22{fill:#D2D8D8;stroke:#717171;stroke-width:6;stroke-miterlimit:10;}
	.st23{fill:#F7F3F2;}
	.st24{fill:#345AF7;stroke:#F5F5F5;stroke-miterlimit:10;}
	.st25{fill:#548EED;stroke:#F5F5F5;stroke-miterlimit:10;}
	.st26{fill:#9FA6BC;stroke:#F5F5F5;stroke-miterlimit:10;}
	.st27{fill:#797C82;stroke:#F5F5F5;stroke-width:5;stroke-miterlimit:10;}
	.st28{fill:#070707;stroke:#0B0B0B;stroke-width:5;stroke-miterlimit:10;}
	.st29{fill:#EAEDF4;stroke:#050505;stroke-miterlimit:10;}
	.st30{fill:#2F70F2;stroke:#F5F5F5;stroke-miterlimit:10;}
	.st31{fill:#F25803;stroke:#F4F6F9;stroke-miterlimit:10;}
	.st32{fill:#EF7216;}
	.st33{fill:#E55028;stroke:#F0F0F7;stroke-miterlimit:10;}
	.st34{fill:#EFD6CA;stroke:#F4F6F9;stroke-width:5;stroke-miterlimit:10;}
	.st35{fill:#EFD6CA;stroke:#1B1B1C;stroke-width:5;stroke-miterlimit:10;}
	.st36{fill:#7C7574;}
	.st37{fill:#F7F5F5;}
	.st38{fill:#873215;stroke:#F0F0F7;stroke-miterlimit:10;}
	.st39{fill:none;stroke:#F4F6F9;stroke-miterlimit:10;}
	.st40{fill:#A39F9F;}
	.st41{fill:#8E8B8B;}
	.st42{fill:none;stroke:#C8C8C8;stroke-width:3;stroke-miterlimit:10;}
	.st43{fill:none;stroke:#C8C8C8;stroke-width:5;stroke-miterlimit:10;}
	.st44{fill:none;stroke:#C8C8C8;stroke-width:2;stroke-miterlimit:10;}
	.st45{fill:#56E247;stroke:#939390;stroke-miterlimit:10;}
	.st46{fill:#47F928;stroke:#939390;stroke-miterlimit:10;}
	.st47{fill:#5EE542;stroke:#939390;stroke-miterlimit:10;}
	.st48{fill:#6AC654;stroke:#939390;stroke-miterlimit:10;}
	.st49{fill:#859E99;stroke:#939390;stroke-miterlimit:10;}
	.st50{fill:none;stroke:#939390;stroke-miterlimit:10;}
	.st51{fill:none;stroke:#141411;stroke-width:4;stroke-miterlimit:10;}
	.st52{fill:#111111;stroke:#F4F4F2;stroke-miterlimit:10;}
	.st53{fill:#EFE630;stroke:#727265;stroke-miterlimit:10;}
	.st54{fill:#0A0A09;stroke:#D1D1C7;stroke-miterlimit:10;}
	.st55{fill:#3F3F3D;stroke:#777769;stroke-miterlimit:10;}
	.st56{fill:#0A0A09;stroke:#F4F4F2;stroke-miterlimit:10;}
	.st57{fill:#262624;stroke:#636359;stroke-miterlimit:10;}
	.st58{fill:#EAE424;stroke:#F4F4F2;stroke-miterlimit:10;}
	.st59{fill:#474640;stroke:#474743;stroke-miterlimit:10;}
	.st60{fill:#BAB9AE;stroke:#A09F8D;stroke-miterlimit:10;}
	.st61{fill:#BAB9AE;stroke:#A09F8D;stroke-width:4;stroke-miterlimit:10;}
	.st62{fill:#E0D438;stroke:#F4F4F2;stroke-miterlimit:10;}
	.st63{fill:none;stroke:#D1D1C7;stroke-miterlimit:10;}
	.st64{fill:none;stroke:#F9F9F7;stroke-width:2;stroke-miterlimit:10;}
	.st65{fill:#B5813C;stroke:#777771;stroke-width:2;stroke-miterlimit:10;}
	.st66{fill:#BC8B51;stroke:#777771;stroke-width:2;stroke-miterlimit:10;}
	.st67{fill:#A06B32;stroke:#777771;stroke-width:2;stroke-miterlimit:10;}
	.st68{fill:#776350;stroke:#777771;stroke-width:2;stroke-miterlimit:10;}
	.st69{fill:#776350;stroke:#777771;stroke-width:4;stroke-miterlimit:10;}
	.st70{fill:#BB8B50;stroke:#FFFFFF;stroke-miterlimit:10;}
	.st71{fill:#B4813B;}
	.st72{fill:#997A44;}
	.st73{fill:#3F3731;}
	.st74{fill:#BFA690;stroke:#AFABA7;stroke-width:2;stroke-miterlimit:10;}
	.st75{fill:none;stroke:#3D3935;stroke-width:5;stroke-miterlimit:10;}
	.st76{fill:none;stroke:#CCC9C6;stroke-miterlimit:10;}
	.st77{fill:#BFA690;stroke:#CCC9C6;stroke-miterlimit:10;}
	.st78{display:none;}
	.st79{display:inline;fill:#070707;stroke:#474743;stroke-miterlimit:10;}
	.st80{display:inline;fill:#C4F0F7;stroke:#F5F7F7;stroke-miterlimit:10;}
	.st81{display:inline;fill:none;stroke:#F5F7F7;stroke-miterlimit:10;}
	.st82{display:inline;}
	.st83{enable-background:new    ;}
	.st84{clip-path:url(#SVGID_2_);}
	.st85{fill:#474640;}
	.st86{fill:#474743;}
	.st87{fill:#BAB9AE;}
	.st88{fill:#A09F8D;}
	.st89{fill:#E0D438;}
	.st90{fill:#F4F4F2;}
</style>
<g id="Layer_1_2_">
	<g id="Layer_9">
		<rect x="507.5" y="-187.5" class="st0" width="1094.7" height="358.2"/>
	</g>
	<g id="Layer_3_1_">
		<polygon class="st1" points="1370.7,-140 1375.2,-144.8 1379.7,-140.7 1379.4,-145.2 1380,-153.5 1382.9,-153.2 1382.7,-155.7 
			1386.4,-154.2 1391.9,-158.3 1398.1,-160 1398.3,-156.7 1403.2,-157.8 1405.6,-153.4 1408.5,-152.7 1409.9,-157.2 1414.4,-155.6 
			1422,-158.3 1424.7,-157.3 1424.5,-159.8 1426.6,-162.2 1430.4,-162.5 1432.9,-163.8 1437.7,-165.2 1440.6,-165.3 1440.8,-162.2 
			1445.1,-162.5 1447.6,-160.2 1449.7,-156 1458.1,-160.2 1454.3,-164 1451.5,-166.2 1450.8,-167.9 1457.6,-167 1452.3,-170.8 
			1450.7,-173.2 1446,-174.4 1447.9,-175.5 1445.8,-176.9 1449.8,-177.2 1454,-175.2 1457,-173.6 1459.9,-172.7 1463.3,-171.8 
			1467.2,-173.2 1469.7,-174.4 1473.4,-172.4 1476.1,-175.2 1481.3,-174.7 1485.9,-174.7 1486,-173.8 1489.7,-174.2 1491.3,-176.2 
			1499.4,-176.8 1502.6,-176.3 1505.4,-177.5 1508.5,-179.2 1498.7,-182.8 1500.6,-184.2 1499.8,-187 1491.6,-187.3 1489.5,-188.4 
			1485.5,-188.2 1482.2,-190.2 1445.8,-187.4 1444.6,-184.6 1441,-182.2 1437.8,-183.3 1435.5,-186.6 1364.9,-181.2 		"/>
		<polygon class="st1" points="1365.9,-169.2 1363.8,-170.6 1367.3,-149.8 1367.4,-136.5 1363.6,-136.3 1361.1,-134.3 
			1356.2,-136.2 1353.6,-133.8 1351.2,-136.2 1347.8,-136.5 1351.6,-138.6 1354.3,-140.2 1350.4,-142.8 1354.5,-145.5 1360,-148.7 
			1359.7,-152.3 1352.8,-155.4 1342.9,-155.5 1337.8,-153.7 1337.9,-151.5 1341.8,-149.6 1343,-146 1342.2,-144.3 1335.9,-145.6 
			1328.2,-148.2 1319.1,-146.7 1316.8,-144.2 1314.4,-147 1309.5,-146.4 1311.1,-149.5 1307,-149.8 1319.5,-152.9 1311.2,-156.3 
			1306.8,-153.2 1302.3,-151.2 1298.4,-153.2 1291,-152.3 1290.8,-154.7 1284.2,-152.7 1283.9,-155.7 1273.5,-154.7 1270.7,-157.8 
			1264.1,-159.2 1275.2,-163.9 1282.2,-161.5 1287,-164.8 1293,-166.8 1293.8,-164.2 1293.1,-160.9 1303.6,-166 1308.2,-166.4 
			1310.3,-163.2 1314.8,-166.9 1309.2,-170.6 1300.8,-170 1306.5,-176.8 1319.4,-177.7 1322.1,-177.9 1359.2,-180.8 1364.9,-181.2 
					"/>
		<polygon class="st2" points="1368.9,-181.5 1370.9,-170.3 1369.3,-166.2 1360.9,-173.2 1360.4,-180.9 		"/>
		<path class="st2" d="M1365.1-146.7c6.7-0.5,7.6-0.6,7.6-0.6l-0.5,3.9l-8.1,4.5L1365.1-146.7z"/>
		<line class="st3" x1="1271.2" y1="-160" x2="1279.1" y2="-159.2"/>
		<polygon class="st2" points="1361.8,-161.6 1371.5,-164.2 1374.3,-160.2 1359.3,-157.5 		"/>
		<g id="Layer_2_1_">
			<polygon class="st4" points="982.8,-4.3 1391.7,-46.8 1395.6,-47.2 1394.1,-49.3 1327.7,-42.5 1258.2,-34.9 982.5,-6.6 			"/>
			<polygon class="st4" points="1071.4,4.4 1428.5,-34.2 1431.9,-34.4 1430.5,-39.8 1372.4,-33.9 1311.8,-26.3 1071,-1.2 			"/>
			<polygon class="st5" points="1368.3,-40.6 1367.2,-151.2 1363.8,-170.6 1365.9,-169.2 1368.8,-151.5 1370,-148.3 1376.7,-60.4 
				1377.6,-49.5 1378.2,-41.3 			"/>
			<polygon class="st6" points="1351.5,-45.7 1321.9,-41.4 1367.8,-33.5 1429.4,-40.9 1392.4,-51.6 1377.6,-49.5 1378.2,-41.3 
				1368.3,-40.6 1367.7,-48 			"/>
			<path class="st7" d="M1358.4-41.7c-3.6-0.1-5.4-3-5.9-2.8c-0.6,0.2,1.6,4.3,2.7,4.1s-0.2-4.4,1.8-5c1.7-0.5,5.3,1.8,4.6,2.9
				C1361.2-41.9,1359.6-41.6,1358.4-41.7z"/>
			<path class="st8" d="M1384.2-44.1c1.1,0,2.1-4.2,2.6-4.2s-0.6,4.4,0.1,4.4c0.7,0.1,2.2-4,3.3-3.9c1,0,1.6,3.4,0.3,3.8
				c-1.7,0.5-5.9-4.5-7.3-4C1382-47.6,1383.1-44.1,1384.2-44.1z"/>
		</g>
		<g id="Layer_4_1_">
		</g>
		<polyline class="st9" points="1309.6,-181.5 1310.7,-177.2 1308.4,-184.6 1316.8,-180.8 1321.2,-187.5 1330.4,-178.6 		"/>
		<polygon class="st10" points="1312.2,-174.7 1310,-182.3 1314,-181.5 1317.1,-180.2 1318.4,-182.3 1334,-177.2 		"/>
		<polygon class="st10" points="1331.2,-173.8 1331.2,-187.5 1434.3,-188.2 1433.7,-181.5 		"/>
		<polygon class="st10" points="1321,-186 1322.7,-188.2 1334.8,-187.5 1328.8,-170.6 		"/>
		<polygon class="st10" points="1364.9,-143.2 1372.6,-145.7 1372.8,-143.2 1365.6,-137.9 		"/>
		<polygon class="st10" points="1370.9,-154.9 1363.8,-153.7 1361.4,-157.9 1372.8,-159.2 		"/>
		<polygon class="st10" points="1361.4,-167.6 1372.8,-166.2 1372.8,-162.3 		"/>
	</g>
	<g id="Layer_6">
	</g>
	<g id="Layer_4">
	</g>
	<g id="Layer_2">
		<polygon class="st11" points="581.1,179.4 561.4,18.9 697.3,12.1 708,162.5 		"/>
		<polygon class="st12" points="702.4,84.1 570.8,95.7 581.1,179.4 708,162.5 		"/>
		<path class="st13" d="M554.7,159.4l26.4,20l-10.3-83.7l-9.3-76l-0.1-0.8c0.1-1.8,0.2-4.1,0-6.9c-1.2-16.6-10.9-34.6-17.1-34.3
			c-6,0.3-9.7,17.5-8.3,30.8c0.4,3.5,1,6.5,1.7,8.7L554.7,159.4z"/>
		<line class="st14" x1="561.4" y1="18.9" x2="561.4" y2="16.4"/>
		<polygon class="st15" points="587.6,28.2 592.3,86.4 681.9,77.7 679.1,22.3 		"/>
		<path class="st13" d="M696.9,11.3c-44.8,2.1-89.7,4.3-134.5,6.4c0-0.6,0-1.2,0-1.9c-0.2-10.7-3.9-23.7-15.5-38.3l132.3-4.7
			c0.5,0,1,0,1.4,0c11.7,1,15,26.8,15.9,36.8L696.9,11.3z"/>
		<path class="st16" d="M621.1,22.9c4.4,0.3,10,0.4,16.3,0c6-0.4,11.1-1.1,15.3-1.9"/>
	</g>
	<g id="Layer_3">
		<polygon class="st17" points="693.4,-9.8 696.9,0.8 702.9,2.8 815.3,-3.5 771.5,-12.1 		"/>
		<polyline class="st18" points="815.3,-1.3 815.3,75.8 711,84.1 703.6,4.9 708,84.1 702.4,84.1 696.9,0.8 702.9,2.8 		"/>
		<path class="st16" d="M811.9-1.3"/>
		<polygon class="st19" points="702.6,86.4 711,156.6 820.6,145.8 815.3,78.6 		"/>
		<polygon class="st20" points="713,148.3 820,137.5 815.3,128.4 713,138.4 		"/>
		<polygon class="st21" points="713,89.9 717.7,135.8 805.8,128.4 805.8,82.4 		"/>
		<polygon class="st16" points="723.1,12.1 795.1,9.9 795.1,65.8 723.1,71.2 		"/>
		<path class="st22" d="M739.2,5.3c1.2,0,3.1,0,5.4,0c12,0.1,15.7,0.8,21.5,0c2.1-0.3,5.2-0.8,8.7-2.1l6.1-0.4"/>
		<polygon class="st23" points="1015.6,-30.8 1019.1,-21.8 1014.7,-20.5 1010.6,-30.8 		"/>
	</g>
	<g id="Layer_5">
		<polygon class="st24" points="857.4,-80.7 805.8,-72.6 805.8,-9.8 805.8,-7 818.4,-3.5 817.7,108.4 820,137.5 857.4,149.5 		"/>
		<polygon class="st25" points="857.6,-80.7 970.6,-80.7 964.6,135 856,149.5 		"/>
		<polygon class="st26" points="866.3,-69.4 866.3,-22.9 959.2,-25.6 960.3,-69.4 		"/>
		<polygon class="st26" points="866.3,-9.8 865.3,34.4 865.3,35.6 959,29.3 960.3,-13.4 		"/>
		<polygon class="st27" points="865.3,48.8 865.3,92.7 956.5,83.1 958.4,41.4 		"/>
		<path class="st28" d="M897.8-71.6c1-0.1,2.5-0.1,4.3-0.2c8.5-0.1,9.4,1,15.5,0.8c4.6-0.2,6-0.9,13-1c1.3,0,2.3,0,3,0"/>
		<path class="st28" d="M895.4-13.4c1.4,0,3.4,0,6,0c8.3,0.1,9.4,0.7,15.5,0.7c6.1-0.1,9.8-0.8,11.7-1.2c1.6-0.4,2.9-0.7,3.8-1"/>
		<path class="st28" d="M895.7,44.3c1.2-0.2,3.2-0.5,5.7-0.7c7.3-0.6,8.4,0.4,13.3-0.3c3.6-0.5,4.2-1.2,9.8-2
			c1.8-0.3,3.3-0.4,4.3-0.5"/>
		<polygon class="st29" points="860.5,101.9 860.5,129.8 953.4,119.4 953.4,92.7 		"/>
		<polygon class="st30" points="857.4,141.2 964.8,128.4 953.4,119.4 860.5,129.8 		"/>
		<path class="st25" d="M1088,144.3"/>
	</g>
	<g id="Layer_7">
		<polygon class="st31" points="970.6,-76.2 1029.4,-76.2 1058.8,-74.4 976.2,-72 		"/>
		<polygon class="st32" points="977.7,-70.9 1060.5,-73 1058.8,-18 979.1,-12.7 		"/>
		<polyline class="st31" points="970.4,-74.4 970.3,-69.4 964.8,129.8 970.6,132.8 977.7,-70.9 970.6,-76.2 		"/>
		<polygon class="st33" points="977.7,-12.7 975.6,-10.6 970.6,132.8 1052.6,119.4 1053.6,60 1057.8,60 1060.5,-17 		"/>
		<polygon class="st34" points="991.2,-0.5 989.3,56.4 1038.2,50.9 1041.8,-4.4 		"/>
		<path class="st35" d="M1005.9,3.9c1.2-0.2,3-0.5,5.2-0.4c3.3,0.2,3.9,1,6.2,0.8c2.2-0.2,2.4-1,5.9-1.8c1.5-0.3,2.7-0.5,3.6-0.6"/>
		<polygon class="st36" points="982.2,-64.7 984.2,-17.6 1053.2,-21 1053.2,-65.9 		"/>
		<path class="st33" d="M977.7-70.9"/>
		<polygon class="st23" points="1019.1,-30.8 1019.1,-20.5 1025.3,-21.8 1026.8,-30.8 		"/>
		<polygon class="st37" points="1005.9,-30.8 1008,-20.5 1010.6,-20.5 1010.6,-30.8 		"/>
		<rect x="998.1" y="-30.8" class="st23" width="3.2" height="7.9"/>
		<rect x="991.2" y="-30.8" class="st23" width="4.5" height="9"/>
		<polygon class="st23" points="1026.8,-30.8 991.2,-30.8 989.3,-30.8 989.3,-62 1026.8,-62 		"/>
		<polygon class="st38" points="976.2,80.7 976.2,121.3 1047.1,109.1 1050.3,71.2 1015.6,77.1 		"/>
		<polygon class="st39" points="977.7,-72 1060.5,-74.4 1060.5,-18.1 977.7,-12.7 		"/>
	</g>
	<g id="Layer_8">
		<polygon class="st40" points="528,163.2 554.7,159.4 581.1,179.4 708,162.5 711,156.6 820.6,145.8 841.2,144.3 856,149.5 
			1052.6,119.4 1058.8,111.3 1183,92.7 1196.4,95.7 1310.6,74.7 1310.6,67 1329.4,61.5 1356.2,67 1491.9,34.4 1506.6,34.4 
			1556.3,23.2 1556.3,-1.3 1602.2,-9.8 1602.2,205 528,205 		"/>
	</g>
	<g id="Layer_10">
		<polygon class="st41" points="581.1,179.4 610,205 756.1,205 781,205 708,162.5 		"/>
		<polygon class="st41" points="821.4,145.8 907.7,194.6 929.6,205 786.5,205 711.7,156.6 		"/>
		<polygon class="st41" points="856,149.5 943.2,205 1097.5,205 964.6,135 		"/>
		<polygon class="st41" points="1052.6,119.4 1172.5,205 1102.9,205 964.8,129.8 		"/>
	</g>
	<g id="Layer_11">
		<line class="st42" x1="754.3" y1="23.2" x2="739.2" y2="34.4"/>
		<line class="st43" x1="739.2" y1="21.1" x2="735.2" y2="23.2"/>
		<line class="st44" x1="666.6" y1="54.4" x2="652.7" y2="71.2"/>
		<line class="st44" x1="655.5" y1="35.6" x2="612.3" y2="74.8"/>
		<line class="st44" x1="624.9" y1="35.6" x2="612.3" y2="42.6"/>
	</g>
	<g id="Layer_12">
	</g>
	<g id="Layer_13">
		<polygon class="st45" points="1060.9,-23.2 1103.6,-27.5 1097.4,92.2 1053.2,101.2 1053.2,60.8 1058.4,61.2 		"/>
		<polygon class="st46" points="1060.9,-33.3 1103.6,-27.5 1060.9,-23.2 		"/>
		<polygon class="st47" points="1097.4,92.2 1100.4,101.2 1053.2,112.8 1053.2,101.2 		"/>
		<polygon class="st48" points="1053.2,121.7 1100.4,110 1100.4,101.2 1053.2,112.8 		"/>
		<polygon class="st48" points="1076.8,50 1099.8,46.4 1097.4,92.2 1053.2,101.2 1053.2,60.8 1058.4,61.2 1058.6,53.7 		"/>
		<polygon class="st49" points="1060.9,-12.4 1093.5,-15.8 1092,35.4 1059,40.8 		"/>
		<line class="st50" x1="1069.4" y1="-7.8" x2="1064" y2="0.1"/>
		<line class="st50" x1="1082.2" y1="-10" x2="1066.7" y2="18.5"/>
		<path class="st51" d="M1067.6-20.7c0.9,0,2.4,0,4.4,0c7.6,0,9,0.1,11.3-0.3c3.4-0.6,6.7-1.8,6.6-2.1c-0.1-0.3-1.8-0.1-3.3,0"/>
	</g>
	<g id="Layer_14">
		<polygon class="st52" points="1060.9,-34.9 1110.1,-28.2 1105.2,108.7 1100.4,108.7 1100.4,101.2 1097.4,92.2 1103.6,-27.5 
			1060.9,-33.3 		"/>
		<polygon class="st53" points="1133,-30.2 1162.9,-32 1110.1,-38.5 1060.9,-34.9 1110.1,-28.2 		"/>
		<polygon class="st54" points="1130.2,104.6 1156.6,99.6 1156.6,92.2 1105.4,101.2 1105.2,108.7 		"/>
		<polygon class="st55" points="1125.9,89 1148.8,85.7 1156.6,92.2 1105.4,101.2 1105.8,92.2 		"/>
		<polygon class="st56" points="1160.8,18.5 1156.6,92.2 1148.8,85.7 1156.6,38.2 1160.8,-31.9 1162.9,-32 		"/>
		<polygon class="st57" points="1107.4,45.1 1156.6,38.2 1148.8,85.7 1105.8,92.2 		"/>
		<polygon class="st58" points="1117.5,60.9 1117.5,77.2 1140.4,73.8 1142.1,58 		"/>
		<polygon class="st59" points="1109.1,0.1 1107.4,45.1 1156.6,38.2 1160.8,-31.9 1110.1,-28.2 		"/>
		<polygon class="st60" points="1117.5,-18.5 1114.2,32.9 1148.8,28.8 1151.3,-20.7 		"/>
		<path class="st61" d="M1125.6-22c1.2-0.3,3.1-0.6,5.3-0.6c3.8,0,4.4,1,7,0.6c2.7-0.4,3.1-1.6,6.3-2.1c1.6-0.2,3-0.1,3.9,0"/>
		<polygon class="st62" points="1129.8,-27.5 1129.8,-24.2 1142.1,-24.2 1142.1,-28.2 		"/>
		<line class="st63" x1="1191.9" y1="-22" x2="1179" y2="0.1"/>
		<line class="st64" x1="1182.6" y1="-24.2" x2="1176" y2="-15.8"/>
	</g>
	<g id="Layer_15">
		<path class="st65" d="M1158.4,88.3l4.5-120.2l-28.8-3.5l-17.7-3v-4.2c0.2-0.7,0.6-1.5,1.1-2.4c1.6-2.7,4-4.4,5.4-5.3
			c17.7-11.1,29.9-18.7,37.3-14.9c1.5,0.8,5.7,3.5,5.4,14l-2.7,139.5H1158.4z"/>
		<path class="st66" d="M1224.6-68.9c1,0.7,2.1,1.5,3,2.7c3.7,4.5,2.6,9.7,2.2,11.2l-64.2,2.8c0-0.7,0-1.4,0-2.1
			c-0.3-5.3-3.1-9.5-5.5-12.2L1224.6-68.9z"/>
		<polygon class="st67" points="1230.3,-26.2 1230.7,6 1227.1,5.8 1222.4,77.2 1220.9,77.2 1220.9,43 1224.7,-54.8 1229.8,-55 		"/>
		<polygon class="st68" points="1191,81.9 1162.9,87.1 1158.4,88.3 1169.7,92.2 1169.7,101.2 1232.2,86.9 1230.7,80 1224.2,77.2 		
			"/>
		<polyline class="st69" points="1195.3,88.3 1169.7,92.2 1230.7,81.9 		"/>
		<g id="Layer_16">
			<polygon class="st70" points="1195.2,46.6 1219.7,42.5 1224.7,-54.8 1209.3,-53.9 1209.3,-26.2 1205.8,-26.2 1205.8,-25.3 
				1205.8,-15.8 1209.3,-15.8 1209.3,40 1163.7,47.9 1164.1,51.7 			"/>
			<polygon class="st71" points="1209.3,-52.2 1209.3,-26.2 1205.8,-26.2 1205.8,-15.8 1209.3,-15.8 1209.3,40 1163.7,47.9 
				1165.6,-51.2 1209.3,-53.9 			"/>
			<polyline class="st3" points="1223.6,-26.2 1220.9,43 1164.1,51.7 1165.6,-51.2 1224.7,-54.8 1223.6,-26.2 			"/>
			<polyline class="st72" points="1193.4,81.6 1220.9,77.2 1219.7,42.5 1164.1,51.7 1162.9,87.1 1193.4,81.6 1193.4,81.6 			"/>
			<polygon class="st73" points="1162,100.4 1169.7,102.5 1169.7,92.2 1158.4,88.3 1158.4,99.1 			"/>
			<polygon class="st74" points="1169.3,-43.2 1169.3,39.5 1201.7,34.1 1201.7,-45 			"/>
			<path class="st75" d="M1204.7-44.5c1.8,2.7,2.6,5.1,3,6.7c0.8,2.9,1.8,6.5-0.5,8.2c-0.9,0.7-2,0.9-2.8,1"/>
			<line class="st76" x1="1182.6" y1="-33.4" x2="1172.5" y2="-17.6"/>
			<line class="st76" x1="1195.3" y1="-33.3" x2="1179.3" y2="6.1"/>
			<path class="st77" d="M1100.4,108.7"/>
			<polygon class="st41" points="1172.5,205 1055.3,121.3 1100.4,110 1177.7,205 			"/>
		</g>
		<g id="Layer_17">
		</g>
	</g>
	<g id="Layer_18">
	</g>
	<g id="Layer_19">
		<path class="st41" d="M1187.3,205h44.9H1187.3z"/>
		<polyline class="st41" points="1236.1,205 1236.1,205 1236.1,205 1236.1,205 		"/>
		<polygon class="st41" points="1105.2,108.7 1190.2,205 1245.6,205 1158.4,101.2 		"/>
	</g>
	<g id="Layer_20">
		<polygon class="st41" points="1158.4,99.1 1248.7,205 1389.5,205 1314.9,152.3 1232.2,89.2 1231.3,88.1 1217.9,90.9 1170.6,102.5 
					"/>
	</g>
</g>
<g id="Layer_3_2_" class="st78">
	<polygon class="st79" points="1105.1,0.8 1103.4,45.8 1152.6,39 1156.8,-31.2 1106.1,-27.5 	"/>
</g>
<g id="Layer_4_2_" class="st78">
	<polyline class="st80" points="1104.3,42.4 1119.7,-6.1 1168.5,-11.8 	"/>
	<line class="st81" x1="1118.9" y1="-6.3" x2="1103.9" y2="42"/>
</g>
<g id="Layer_2_2_" class="st78">
	<g class="st82">
		<g class="st83">
			<g>
				<g>
					<defs>
						<polygon id="SVGID_1_" points="1103.1,46.2 1117.8,-8.5 1169.2,-12.1 1154.4,42.6 						"/>
					</defs>
					<clipPath id="SVGID_2_">
						<use xlink:href="#SVGID_1_"  style="overflow:visible;"/>
					</clipPath>
					<g class="st84">
						<g>
							<g>
								<g>
									<path class="st85" d="M1144.9-4.7l-2.8,0.2c0.5,0,0.9,0.1,1.3,0c0.2,0,0.5-0.1,0.8-0.1S1144.7-4.7,1144.9-4.7 M1112.5,37.8
										l13.1-37l33.3-3.9L1147,32.4l-0.4,0.1L1112.5,37.8 M1137.3-4.5l0.7-2.7l12.7-1.4l-0.6,2.2c0.2,0,0.3-0.1,0.5-0.1
										c0.7-0.1,1.4-0.2,2.1-0.2s1.4-0.1,2-0.1l-1.2,2.8c-0.6,0-1.1,0-1.7,0c-0.5,0-1.1,0.1-1.6,0.2c-1.3,0.2-2,0.5-2.8,0.8
										c-0.9,0.4-1.9,0.8-3.5,1c-0.5,0.1-1,0.1-1.4,0.2c-0.9,0.1-1.6,0-2.2-0.1c-0.8-0.1-1.6-0.1-3.2,0c-2.3,0.2-4,0.5-4.6,0.7
										l-0.2-2.7C1133.2-3.9,1135-4.3,1137.3-4.5 M1167.9-11.3l-47.5,5.8l-6.2,19.6l-10,31.2l46.7-7.9L1167.9-11.3"/>
									<path class="st86" d="M1104.3,45.3l10-31.2l6.2-19.6l47.5-5.8l-17,48.7L1104.3,45.3 M1169.2-12.1L1119.7-6l-6.4,20.2
										l-10.2,32.1l48.7-8.2L1169.2-12.1"/>
									<polyline class="st87" points="1157.6,-2.2 1126.3,1.5 1113.7,37 1146.2,31.9 1157.6,-2.2 									"/>
									<path class="st88" d="M1113.7,37l12.5-35.5l31.3-3.7L1146,32L1113.7,37 M1158.8-3l-33.3,3.9l-13.1,37l34-5.2l0.4-0.1
										L1158.8-3"/>
									<path class="st88" d="M1152.7-6.7c-0.7,0-1.4,0.1-2.1,0.2c-0.2,0-0.3,0.1-0.5,0.1l-0.4,1.3l-4.9,0.3
										c-0.2,0-0.4,0.1-0.6,0.1c-0.3,0.1-0.6,0.1-0.8,0.1c-0.5,0-0.8,0-1.3,0l-4.9,0.3l0.1-0.3c-2.3,0.2-4.1,0.6-4.8,0.8l0.2,2.7
										c0.6-0.2,2.4-0.5,4.6-0.7c1.5-0.1,2.3,0,3.2,0c0.7,0.1,1.3,0.1,2.2,0.1c0.4,0,0.9-0.1,1.4-0.2c1.6-0.3,2.6-0.7,3.5-1
										c0.8-0.3,1.6-0.6,2.8-0.8c0.5-0.1,1-0.1,1.6-0.2c0.5,0,1.1-0.1,1.7,0l1.2-2.8C1154-6.8,1153.4-6.8,1152.7-6.7"/>
									<polyline class="st89" points="1149.5,-7.8 1138.7,-6.6 1138.3,-4.9 1149,-5.7 1149.5,-7.8 									"/>
									<path class="st90" d="M1138.3-4.9l0.4-1.6l10.8-1.2l-0.6,2.1L1138.3-4.9 M1150.7-8.6L1138-7.2l-0.7,2.7l-0.1,0.3l4.9-0.3
										l2.8-0.2l4.9-0.3l0.4-1.3L1150.7-8.6"/>
								</g>
							</g>
						</g>
					</g>
				</g>
			</g>
		</g>
	</g>
</g>
</svg>
